<svg width="58" height="60" viewBox="0 0 58 60" fill="none" xmlns="http://www.w3.org/2000/svg">
<path d="M29.0363 0.963699C13.0663 0.963699 0 14.03 0 30C0 45.97 13.0663 59.0363 29.0363 59.0363C37.0213 59.0363 44.4255 55.9149 49.6521 50.6158L44.4255 45.3892C40.5056 49.3091 35.0613 51.7772 28.9637 51.7772C16.9136 51.7772 7.18648 42.0501 7.18648 30C7.18648 17.9499 16.9136 8.22277 28.9637 8.22277C34.9887 8.22277 40.2153 10.836 44.1352 14.8285L36.2228 22.7409H58V0.963699L49.3617 9.602C44.1352 4.37546 36.9487 0.963699 28.9637 0.963699H29.0363Z" fill="white"/>
</svg>
