<svg width="64" height="64" viewBox="0 0 64 64" fill="none" xmlns="http://www.w3.org/2000/svg">
<path d="M32 0C29.76 0 28 1.76 28 4C28 6.24 29.76 8 32 8C34.24 8 36 6.24 36 4C36 1.76 34.24 0 32 0ZM12 8C9.76 8 8 9.76 8 12C8 14.24 9.76 16 12 16C14.24 16 16 14.24 16 12C16 9.76 14.24 8 12 8ZM52 8C49.76 8 48 9.76 48 12C48 14.24 49.76 16 52 16C54.24 16 56 14.24 56 12C56 9.76 54.24 8 52 8ZM32 16C23.2 16 16 23.2 16 32C16 40.8 23.2 48 32 48C40.8 48 48 40.8 48 32C48 23.2 40.8 16 32 16ZM4 28C1.76 28 0 29.76 0 32C0 34.24 1.76 36 4 36C6.24 36 8 34.24 8 32C8 29.76 6.24 28 4 28ZM60 28C57.76 28 56 29.76 56 32C56 34.24 57.76 36 60 36C62.24 36 64 34.24 64 32C64 29.76 62.24 28 60 28ZM12 48C9.76 48 8 49.76 8 52C8 54.24 9.76 56 12 56C14.24 56 16 54.24 16 52C16 49.76 14.24 48 12 48ZM52 48C49.76 48 48 49.76 48 52C48 54.24 49.76 56 52 56C54.24 56 56 54.24 56 52C56 49.76 54.24 48 52 48ZM32 56C29.76 56 28 57.76 28 60C28 62.24 29.76 64 32 64C34.24 64 36 62.24 36 60C36 57.76 34.24 56 32 56Z" fill="white"/>
</svg>
