<svg width="58" height="60" viewBox="0 0 58 60" fill="none" xmlns="http://www.w3.org/2000/svg">
<path d="M54.1628 1.02326C53.9441 1.02326 53.8712 1.16906 53.7254 1.24195L26.3889 20.6327C26.0973 20.8514 25.6599 21.4345 25.4412 21.799L24.4935 23.6215C29.7422 25.2981 33.7515 29.3075 35.4282 34.5561L37.2506 33.6084C37.6151 33.3897 38.1254 33.0252 38.417 32.6608L57.8077 5.32421C58.0264 4.95972 58.0993 4.66813 57.8077 4.37654L54.6002 1.16906C54.4544 1.02326 54.3086 0.950363 54.1628 0.950363V1.02326ZM19.3178 29.9635C13.9234 29.9635 9.76826 34.4103 9.76826 39.7318C9.76826 46.9487 5.7589 53.2178 0 56.5711C2.843 58.1749 6.26918 59.0496 9.76826 59.0496C20.4842 59.0496 29.159 50.4477 29.159 39.6589C29.159 34.2645 24.7122 29.8906 19.3907 29.8906L19.3178 29.9635Z" fill="white"/>
</svg>
